<?xml version="1.0" standalone="no"?>
<!DOCTYPE svg PUBLIC "-//W3C//DTD SVG 20010904//EN"
 "http://www.w3.org/TR/2001/REC-SVG-20010904/DTD/svg10.dtd">
<svg version="1.0" xmlns="http://www.w3.org/2000/svg"
 width="800.000000pt" height="600.000000pt" viewBox="0 0 800.000000 600.000000"
 preserveAspectRatio="xMidYMid meet">

<g transform="translate(0.000000,600.000000) scale(0.100000,-0.100000)"
fill="#000000" stroke="none">
<path d="M4353 5549 c-45 -9 -111 -47 -129 -74 -23 -35 -20 -108 6 -149 11
-19 53 -63 92 -98 l71 -63 104 0 103 -1 44 -47 c24 -26 51 -47 60 -47 9 0 16
-5 16 -11 0 -19 -460 -693 -494 -724 -43 -40 -220 -298 -242 -355 -23 -58
-211 -340 -226 -340 -7 0 -23 -11 -37 -24 -23 -22 -35 -25 -120 -27 l-94 -2
-39 54 c-60 83 -83 120 -101 169 -9 25 -39 77 -67 115 -27 39 -58 81 -67 95
-25 34 -64 70 -77 70 -6 0 -38 39 -71 86 -33 46 -75 104 -92 127 -28 36 -33
50 -33 100 0 60 9 71 33 37 16 -23 136 -47 179 -37 15 4 37 22 50 40 32 44 34
161 3 194 -35 36 -173 56 -208 29 -30 -23 -57 -9 -57 30 l0 33 -157 51 c-174
56 -271 76 -416 85 -93 6 -211 -5 -288 -27 -31 -9 -42 -7 -90 18 -61 32 -129
36 -232 14 -79 -16 -117 -49 -117 -102 0 -41 16 -63 87 -118 l33 -25 -55 -80
c-31 -44 -59 -91 -62 -105 -13 -49 -53 -144 -66 -152 -6 -4 -26 -8 -44 -8 -71
0 -306 -61 -392 -102 -47 -22 -104 -46 -127 -53 -46 -14 -78 -36 -205 -142
-103 -86 -127 -112 -213 -236 -82 -118 -119 -200 -157 -347 -39 -154 -39 -149
-46 -280 -6 -127 1 -183 47 -373 53 -217 173 -409 360 -574 98 -87 194 -153
222 -153 7 0 53 -20 103 -44 87 -42 287 -96 415 -111 l46 -6 33 -92 c22 -60
57 -125 98 -185 36 -52 63 -95 61 -96 -2 -1 -24 -14 -50 -29 -62 -36 -88 -71
-88 -117 0 -60 52 -92 177 -110 87 -11 88 -11 181 32 61 28 65 28 116 15 41
-10 96 -12 234 -6 192 8 254 19 482 92 87 27 106 37 108 54 4 29 31 33 62 12
24 -16 33 -16 104 -4 43 8 86 21 97 30 43 40 32 178 -19 222 -31 26 -41 27
-128 12 -38 -7 -69 -18 -80 -30 -27 -30 -34 -23 -34 36 0 54 3 60 80 168 101
141 100 140 132 161 39 26 175 216 195 273 10 26 46 90 82 141 l64 92 92 0
c79 0 94 -3 110 -20 10 -11 26 -20 35 -20 19 0 207 -272 231 -336 20 -53 203
-320 240 -352 16 -12 135 -179 265 -369 213 -312 234 -347 218 -356 -11 -6
-38 -29 -62 -52 l-42 -42 -106 1 c-104 1 -106 0 -129 -26 -13 -16 -28 -28 -32
-28 -11 0 -84 -76 -107 -110 -23 -35 -21 -120 4 -152 41 -53 157 -85 286 -80
33 2 54 12 104 52 43 34 69 49 79 44 9 -4 45 -9 81 -11 60 -4 88 2 345 83 247
77 285 91 320 123 22 20 57 45 77 55 32 17 40 18 62 7 48 -26 194 10 242 60
27 28 29 36 29 107 0 70 -3 82 -30 119 -34 47 -80 73 -128 73 -60 0 -168 -36
-191 -64 -23 -27 -19 -27 -215 -23 l-73 2 -44 60 c-23 33 -64 92 -90 130 -27
39 -53 75 -59 81 -5 6 -17 21 -25 33 -8 13 -73 101 -143 198 -70 97 -126 178
-123 180 21 21 -195 338 -267 393 -26 20 -65 60 -87 90 -116 154 -129 175
-118 187 7 9 7 22 -2 43 -10 25 -10 34 2 48 99 120 111 133 119 121 9 -15 157
-21 165 -7 6 10 34 -9 34 -24 0 -5 -29 -49 -65 -99 -80 -112 -78 -124 14 -115
62 5 67 8 104 51 21 25 42 45 45 45 4 0 39 -39 77 -86 l70 -86 69 5 c41 3 72
10 76 18 6 8 -9 39 -43 88 -29 42 -55 78 -59 79 -5 2 -8 8 -8 13 0 5 -16 30
-35 55 l-36 47 23 24 c19 20 23 21 30 8 7 -11 27 -15 81 -15 40 0 78 5 84 11
9 9 121 -112 258 -279 18 -21 27 -24 65 -19 25 3 55 6 68 6 32 1 28 28 -13 80
-19 24 -35 47 -35 50 0 3 78 6 172 6 196 0 201 1 284 82 107 103 164 205 176
311 7 52 -38 187 -78 238 -87 108 -162 166 -258 198 -16 6 -14 10 18 46 20 22
36 46 36 53 0 10 34 17 128 26 189 18 173 8 170 110 l-3 86 -170 13 c-153 12
-178 12 -245 -3 -96 -21 -211 -47 -227 -51 -9 -2 -13 -25 -13 -69 l0 -65 -29
0 c-26 0 -47 -20 -162 -155 -89 -104 -136 -152 -143 -145 -5 5 -43 10 -83 10
-56 0 -75 -4 -79 -15 -4 -11 -11 -12 -24 -5 -33 18 -32 40 5 91 19 27 35 54
35 59 0 6 4 10 9 10 7 0 29 31 95 131 26 41 2 59 -79 59 l-63 0 -73 -90 c-40
-49 -74 -90 -75 -90 -2 0 -22 20 -46 44 -40 41 -48 45 -105 50 -59 5 -63 4
-63 -16 0 -11 27 -59 61 -106 41 -57 57 -88 50 -95 -5 -5 -48 -9 -94 -8 -51 1
-88 -2 -92 -8 -11 -20 -30 -11 -54 24 -13 19 -38 50 -56 69 -32 34 -33 36 -20
73 8 22 10 44 5 53 -6 11 1 29 23 57 18 23 57 77 87 122 30 44 59 80 63 81 25
1 79 60 164 177 91 128 131 194 138 234 5 25 -5 10 199 294 99 138 204 285
235 328 l55 78 55 0 c205 0 202 0 223 -27 25 -31 73 -51 154 -64 56 -9 69 -8
102 9 21 11 52 37 68 58 26 34 29 45 29 120 0 76 -2 84 -28 111 -44 46 -184
82 -240 61 -30 -10 -38 -9 -78 16 -24 15 -58 40 -75 56 -46 44 -537 207 -632
210 -37 1 -79 -1 -93 -5 -22 -6 -37 1 -90 44 l-64 51 -87 -3 c-47 -1 -99 -6
-115 -9z m244 -56 c32 -25 63 -50 69 -55 6 -4 32 -2 58 6 67 20 108 11 405
-88 194 -65 262 -93 285 -114 37 -34 131 -92 150 -92 7 0 19 -7 27 -16 8 -10
21 -13 36 -9 16 4 32 -1 48 -13 22 -18 23 -21 9 -41 -12 -16 -19 -19 -28 -12
-7 6 -15 8 -18 6 -3 -3 -51 -10 -108 -14 l-102 -9 -251 75 -251 75 -26 -32
-27 -33 -35 17 c-35 17 -37 17 -76 -8 -32 -20 -46 -23 -68 -16 l-29 8 27 1
c30 1 98 30 98 42 0 20 -22 17 -56 -6 -46 -31 -64 -31 -94 0 -23 25 -23 25 -2
25 49 0 103 48 102 92 0 7 -22 35 -49 62 l-49 48 -12 -38 c-14 -45 -80 -135
-115 -158 -14 -9 -35 -16 -47 -16 -18 0 -14 5 17 19 48 22 81 56 90 92 l6 26
-98 6 c-147 9 -253 49 -253 96 0 49 80 100 175 111 124 15 128 14 192 -37z
m1130 -341 c29 -8 65 -28 80 -44 25 -26 28 -37 28 -93 0 -35 -3 -67 -7 -71 -4
-3 -25 -2 -48 4 -39 10 -40 9 -72 -31 -24 -29 -34 -36 -36 -25 -2 9 -14 19
-28 22 -26 7 -31 27 -11 48 6 7 17 27 22 43 9 25 17 31 50 35 29 4 39 9 36 20
-2 8 -3 27 -2 41 0 15 -5 31 -11 37 -15 12 -94 27 -123 24 -16 -2 -17 0 -5 8
16 11 48 7 127 -18z m-917 -30 c0 -13 -48 -32 -78 -31 -27 1 -27 1 3 8 17 4
40 13 50 19 24 14 25 14 25 4z m170 -108 c113 -31 212 -60 220 -66 18 -11 29
-14 -189 47 -91 25 -170 45 -177 45 -10 0 -498 -702 -510 -735 -5 -11 169 -44
264 -50 76 -6 122 -16 122 -28 -1 -7 -9 -28 -18 -47 -12 -24 -23 -34 -37 -33
-11 2 -96 14 -188 28 -92 14 -173 25 -180 25 -7 0 -55 -62 -107 -137 -51 -76
-114 -158 -139 -183 -25 -25 -86 -107 -136 -182 -49 -76 -94 -137 -100 -138
-10 0 -201 -248 -211 -274 -4 -10 1 -12 19 -9 17 3 26 -1 31 -13 8 -20 -9 -34
-41 -34 -13 0 -23 -4 -23 -9 0 -4 22 -6 49 -3 42 4 49 2 53 -16 8 -28 2 -32
-43 -32 -21 0 -41 -5 -45 -11 -4 -7 11 -10 47 -7 50 3 54 1 57 -19 3 -20 -1
-23 -31 -23 -62 0 -78 -14 -22 -20 42 -4 50 -8 53 -27 3 -21 0 -23 -47 -23
-59 0 -69 -17 -13 -22 30 -2 38 -7 40 -25 3 -21 -1 -23 -45 -24 -42 0 -45 -2
-25 -11 31 -15 29 -48 -2 -48 -16 0 -27 -7 -31 -21 -14 -43 -98 -139 -140
-159 -50 -24 -60 -25 -135 -2 -51 14 -60 21 -60 40 0 36 27 79 55 86 30 8 33
26 4 26 -15 0 -19 5 -15 15 9 25 26 178 23 220 l-2 40 85 6 c47 3 96 11 110
17 20 9 0 10 -90 6 l-115 -6 -28 88 c-15 49 -32 130 -37 179 -6 50 -22 163
-35 253 -14 89 -25 169 -25 177 0 11 13 15 48 16 l47 2 -52 10 c-45 8 -53 13
-53 32 0 19 4 21 28 17 40 -7 15 12 -34 26 -23 7 -76 12 -118 12 -71 0 -76 1
-76 21 0 21 3 21 83 15 45 -4 90 -9 100 -12 9 -3 17 -1 17 4 0 5 -35 13 -77
17 -134 12 -123 -1 -123 136 0 65 3 119 8 119 4 -1 41 -48 82 -106 41 -58 86
-112 101 -120 15 -7 60 -60 101 -116 85 -116 98 -139 98 -166 0 -10 29 -60 66
-110 l65 -91 -24 -48 -25 -48 -75 4 -75 3 0 -45 1 -44 61 4 c54 4 66 2 99 -21
21 -14 40 -26 42 -26 6 0 79 79 83 90 4 10 -54 30 -89 30 -34 0 -35 5 -10 46
16 27 27 32 73 38 29 4 79 6 111 5 50 -2 61 1 85 24 16 15 33 27 39 27 16 0
189 259 219 327 32 71 219 349 248 369 13 8 135 180 272 384 137 203 251 369
254 370 3 0 97 -25 210 -56z m611 -106 c12 -28 19 -33 44 -31 25 2 27 0 12 -8
-26 -15 -78 -1 -109 29 -36 34 -35 42 5 42 28 0 36 -5 48 -32z m-3603 -75 l33
-20 -25 -17 c-14 -9 -29 -16 -34 -16 -5 0 -30 -16 -56 -36 -25 -19 -51 -32
-58 -28 -7 5 -8 3 -3 -6 6 -10 -3 -12 -46 -6 -173 23 -152 118 33 150 79 13
105 10 156 -21z m832 -166 l115 -22 3 -338 2 -337 -27 0 c-43 0 -53 -12 -60
-68 -3 -29 -9 -52 -13 -52 -3 0 -17 12 -31 26 -32 34 -112 79 -174 97 -28 8
-90 37 -138 65 -83 47 -302 143 -357 156 -19 4 -17 2 5 -7 17 -6 88 -40 158
-74 170 -84 249 -137 417 -282 111 -97 109 -93 104 -137 -2 -22 -11 -113 -20
-204 -9 -91 -20 -169 -24 -174 -5 -4 -61 -3 -127 2 -65 6 -167 12 -228 14
l-110 3 2 -30 c1 -16 5 -65 8 -107 l7 -78 121 -1 c67 -1 169 -5 227 -9 102 -6
100 -7 -67 -8 l-173 -2 0 -25 0 -25 173 -3 c166 -2 163 -3 -54 -5 l-227 -2 -6
-67 c-3 -38 -7 -86 -8 -108 l-3 -40 140 2 c77 1 179 4 228 8 99 7 102 4 60
-59 -134 -200 -354 -415 -498 -488 -160 -82 -197 -98 -232 -98 l-39 0 4 -40
c4 -40 4 -40 -51 -65 -122 -56 -364 -102 -475 -90 l-67 7 40 33 39 34 -27 12
c-24 11 -30 10 -50 -7 -35 -31 -73 -47 -96 -39 -28 9 -27 17 10 44 28 21 30
25 14 33 -9 6 -31 12 -48 14 -50 7 -120 22 -142 30 -18 7 -18 6 -6 -9 36 -45
-34 2 -139 94 -81 70 -129 95 -202 104 -70 9 -108 31 -153 92 -41 55 -111 194
-120 238 -3 17 -10 46 -15 65 -44 170 -51 205 -47 220 2 10 1 24 -3 31 -5 7
-4 23 1 36 5 14 5 23 -1 23 -6 0 -10 11 -10 25 0 24 1 24 65 18 46 -4 65 -2
65 6 0 7 -21 11 -59 11 -49 0 -59 3 -64 19 -2 10 -1 25 4 32 6 10 9 7 9 -12 0
-24 3 -26 55 -28 61 -2 54 -11 91 103 11 33 25 61 30 63 6 2 21 -18 33 -45
l23 -48 30 28 c17 15 35 28 41 28 6 0 8 3 4 6 -3 4 -21 -3 -40 -15 l-35 -21
-10 30 c-6 17 -11 33 -11 36 1 10 -52 54 -64 54 -7 0 -29 -5 -50 -11 -30 -8
-42 -19 -62 -59 -14 -27 -25 -58 -25 -70 0 -11 -4 -20 -10 -20 -16 0 -12 29
29 191 21 86 52 182 70 217 41 81 167 255 223 308 88 84 223 184 272 203 28
11 87 37 131 59 114 56 370 114 500 113 28 0 82 -3 121 -6 l70 -6 36 54 c107
161 272 286 448 339 172 52 261 55 470 15z m382 -44 c25 -22 33 -78 19 -125
-12 -38 -13 -39 -54 -37 -27 2 -52 -4 -68 -15 -32 -20 -69 -14 -88 16 -12 20
-11 21 18 15 27 -6 32 -3 47 29 13 27 14 40 6 59 -10 22 -12 23 -53 9 -53 -19
-69 -13 -69 26 0 35 13 38 66 15 31 -13 36 -13 41 0 3 8 14 15 25 15 16 0 18
3 9 14 -10 12 -4 12 36 4 27 -6 56 -17 65 -25z m1223 -493 c72 -11 145 -20
163 -20 30 0 42 -12 24 -24 -8 -4 -301 31 -330 40 -13 4 -8 24 6 24 4 0 66 -9
137 -20z m-55 -85 c58 -8 124 -15 148 -15 40 0 57 -15 29 -26 -8 -3 -82 4
-166 16 -85 11 -155 20 -157 20 -2 0 -4 5 -4 10 0 13 24 12 150 -5z m-55 -90
c55 -8 119 -15 143 -15 38 0 54 -11 34 -24 -4 -2 -79 4 -167 15 -88 10 -164
19 -168 19 -5 0 -5 5 -2 10 8 13 40 12 160 -5z m523 -342 c-87 -104 -108 -132
-108 -142 0 -6 -4 -11 -9 -11 -9 0 -201 -224 -201 -234 0 -3 40 -6 90 -6 l89
0 31 45 c17 25 34 45 38 45 4 0 15 -9 25 -20 20 -23 62 -26 71 -5 4 11 21 15
61 15 40 0 57 -4 61 -15 11 -27 38 -16 84 33 25 27 34 34 20 18 -14 -17 -42
-50 -64 -73 -22 -24 -37 -45 -34 -48 3 -3 37 -9 75 -12 l70 -6 71 96 c82 109
113 131 211 155 56 13 71 21 73 37 3 17 10 20 51 17 56 -2 103 24 113 64 3 13
10 21 15 18 14 -9 -23 -63 -57 -85 -17 -10 -42 -19 -55 -19 -36 0 -11 -16 56
-35 106 -30 193 -90 239 -164 37 -60 39 -72 11 -65 -50 13 -102 -91 -91 -181
2 -16 4 -39 5 -51 0 -12 13 -38 27 -59 21 -32 24 -42 15 -62 -9 -19 -14 -22
-30 -14 -10 6 -24 24 -31 40 -7 17 -16 28 -21 25 -16 -10 22 -65 56 -81 19 -9
35 -20 35 -24 0 -12 -71 -64 -120 -89 -25 -12 -48 -27 -51 -32 -8 -13 -269
-14 -277 -2 -4 6 -29 23 -57 39 -27 15 -71 49 -97 74 -27 25 -48 41 -48 35 0
-5 28 -49 63 -97 114 -160 148 -209 145 -212 -2 -1 -21 -5 -44 -7 l-40 -6
-110 127 c-100 116 -154 172 -205 216 -22 18 -42 14 -79 -16 -21 -17 -22 -20
-5 -16 82 20 79 20 69 -7 -4 -11 -19 -16 -49 -16 -35 0 -49 6 -81 36 -22 20
-34 38 -29 40 25 10 75 45 75 53 0 4 -38 9 -85 9 -68 0 -87 -4 -94 -16 -7 -13
-30 -17 -102 -19 -120 -4 -129 -13 -11 -13 l91 0 33 -56 c58 -98 64 -107 146
-224 l81 -115 -27 -6 c-68 -16 -76 -12 -142 66 -34 42 -86 101 -116 132 -30
32 -54 63 -54 69 0 7 -14 23 -31 36 -17 13 -43 35 -58 51 -27 27 -28 27 -48
10 -12 -10 -30 -24 -40 -31 -16 -11 -13 -12 17 -6 19 3 43 8 53 10 12 4 17 0
17 -15 0 -19 -6 -21 -54 -21 -39 0 -55 4 -60 15 -3 8 -12 15 -19 15 -19 0 -50
36 -42 49 3 6 11 11 17 11 13 0 58 39 58 50 0 9 -82 6 -97 -3 -7 -5 -13 -4
-13 0 0 5 -19 8 -42 8 -37 0 -43 3 -40 20 2 11 6 53 9 93 l5 72 88 0 87 0 11
-32 11 -33 -4 33 c-2 19 -5 36 -7 38 -2 1 -43 4 -90 5 -47 1 -90 4 -96 8 -5 3
-26 27 -46 54 l-36 47 36 0 36 0 -25 43 -25 42 21 53 c11 28 23 52 27 52 4 0
34 -31 66 -70 58 -70 95 -89 108 -55 8 22 112 21 124 -1 13 -23 46 -3 78 47
14 22 44 59 68 82 23 23 71 77 105 120 35 42 66 77 69 77 3 0 -2 -8 -10 -17z
m85 10 c-7 -2 -19 -2 -25 0 -7 3 -2 5 12 5 14 0 19 -2 13 -5z m387 -36 c0 -2
-15 -16 -32 -33 l-33 -29 29 33 c28 30 36 37 36 29z m68 -4 c-10 -2 -26 -2
-35 0 -10 3 -2 5 17 5 19 0 27 -2 18 -5z m229 -36 c-20 -16 -42 -22 -80 -22
-46 0 -52 -3 -55 -22 -3 -17 -12 -24 -40 -28 -20 -4 -49 -10 -64 -15 -16 -5
-28 -6 -28 -3 0 3 19 30 41 60 l41 53 107 -1 106 0 -28 -22z m-1372 -9 c7 -7
-6 -9 -39 -4 -27 3 -64 6 -83 6 -22 0 -32 4 -28 11 9 13 135 2 150 -13z m382
-49 l42 -46 -28 -34 c-16 -19 -31 -32 -33 -29 -25 30 -108 152 -108 158 0 4
19 5 43 2 34 -4 50 -14 84 -51z m573 -39 c-34 -38 -64 -70 -67 -70 -3 0 23 32
57 70 34 39 64 70 67 70 3 0 -23 -31 -57 -70z m-417 13 c-7 -2 -19 -2 -25 0
-7 3 -2 5 12 5 14 0 19 -2 13 -5z m-783 -33 c8 -5 12 -12 9 -15 -8 -8 -39 5
-39 16 0 11 11 11 30 -1z m85 -52 c-4 -35 -9 -65 -12 -68 -2 -3 -17 10 -32 29
-24 30 -26 37 -17 67 9 28 16 34 39 34 l29 0 -7 -62z m-136 27 c22 -13 51 -39
65 -58 31 -41 69 -124 62 -136 -3 -5 1 -14 10 -21 8 -7 13 -19 10 -26 -3 -7 0
-15 7 -17 7 -2 -7 -10 -31 -17 -53 -16 -49 -24 7 -11 22 5 41 5 41 1 0 -4 -21
-11 -47 -15 -36 -5 -48 -3 -55 9 -5 8 -16 22 -25 31 -15 16 -14 18 13 41 l29
23 -26 1 c-35 0 -75 -45 -90 -102 -10 -36 -10 -57 0 -101 13 -59 22 -71 61
-81 23 -7 24 -6 7 7 -17 14 -17 16 8 42 23 26 30 47 26 87 -2 21 4 24 62 32
l47 7 0 -43 c0 -43 -29 -120 -49 -132 -6 -4 -11 -16 -11 -28 0 -11 -7 -35 -16
-53 -12 -26 -23 -34 -52 -38 -20 -4 -38 -5 -40 -3 -3 4 20 27 78 75 l25 21
-30 -5 c-17 -2 -39 2 -53 11 -27 18 -50 14 -126 -18 -46 -20 -48 -23 -43 -55
l6 -33 -47 0 -46 0 63 -64 c69 -70 91 -78 189 -68 46 4 52 7 52 28 0 12 -5 26
-10 29 -12 8 41 87 72 110 39 26 51 18 86 -58 33 -74 72 -176 72 -189 0 -5
-33 -9 -72 -10 l-73 -2 68 -3 c46 -3 67 -8 67 -17 0 -16 178 -266 190 -266 22
0 77 -62 168 -188 97 -135 122 -178 122 -208 0 -9 110 -169 245 -356 135 -186
245 -343 245 -349 0 -11 4 -11 59 2 33 7 56 6 96 -6 29 -8 73 -15 97 -15 23 0
74 -7 113 -15 38 -8 72 -12 75 -9 12 13 -53 54 -85 54 -23 0 -33 4 -30 13 3 6
19 12 35 12 17 0 30 -5 30 -12 0 -16 16 -16 54 0 l30 13 -23 21 -23 22 35 6
c50 10 101 -12 139 -59 29 -36 33 -48 33 -103 0 -52 -4 -66 -25 -88 -24 -27
-59 -45 -110 -60 -21 -5 -20 -3 8 14 37 24 43 51 10 51 -32 0 -52 -15 -45 -34
4 -11 -1 -18 -18 -22 -14 -3 -22 -10 -19 -15 7 -11 1 -11 -31 1 l-26 10 41 38
c27 27 40 47 40 65 0 29 -14 36 -23 13 -3 -8 -41 -41 -83 -73 -43 -32 -94 -75
-113 -95 -38 -38 -42 -40 -406 -150 -55 -16 -113 -38 -130 -48 -36 -21 -99
-35 -89 -19 3 6 -3 5 -14 -2 -16 -10 -29 -10 -61 0 l-42 12 22 30 c12 17 20
32 18 34 -2 2 -25 1 -51 -2 -46 -5 -47 -6 -59 -53 -9 -34 -22 -55 -48 -76 -33
-26 -34 -26 -18 -4 9 14 17 27 17 31 0 4 -27 -2 -61 -12 -203 -63 -370 42
-250 158 40 38 110 85 98 66 -4 -6 2 -13 14 -16 12 -3 22 0 26 9 3 8 9 11 14
8 5 -3 9 0 9 5 0 6 -5 11 -11 11 -26 0 5 19 41 25 47 8 51 19 13 33 -26 10
-26 10 -5 11 34 1 89 -25 115 -54 l22 -27 42 24 c33 19 40 27 31 36 -7 7 -20
12 -30 12 -16 0 -17 3 -8 20 6 11 18 20 26 20 8 0 13 4 9 9 -3 5 4 12 15 16
11 3 20 10 20 15 0 4 11 11 25 14 14 4 25 11 25 16 0 18 -491 729 -519 752
-37 30 -227 309 -242 356 -6 21 -41 80 -78 132 -36 53 -82 119 -101 148 -19
28 -41 52 -49 52 -8 0 -25 10 -38 22 -21 20 -33 22 -99 19 -108 -4 -129 3
-147 47 l-15 37 54 9 c30 4 54 13 54 20 -1 6 -18 28 -39 50 l-38 38 35 53 35
53 51 -20 c95 -38 92 -39 117 43 34 111 32 257 -5 362 -26 73 -27 80 -11 97
18 20 119 85 111 71 -8 -12 21 -34 34 -26 5 3 10 15 10 26 0 25 12 24 59 -6z
m-1282 -104 c23 -5 45 -6 48 -3 3 3 5 1 5 -5 0 -5 14 -8 31 -5 l31 5 -7 -49
c-4 -27 -7 -58 -8 -69 -4 -45 -9 -46 -213 -43 l-194 2 0 46 c0 26 -3 69 -7 95
l-6 48 139 -7 c76 -4 158 -11 181 -15z m1525 -36 c0 -5 -5 -11 -11 -13 -6 -2
-11 4 -11 13 0 9 5 15 11 13 6 -2 11 -8 11 -13z m1648 -121 c0 -10 6 -14 15
-10 8 3 15 2 15 -3 0 -5 18 -5 40 -1 39 7 40 7 46 -27 9 -47 0 -132 -17 -168
-15 -32 -50 -40 -78 -20 -12 8 -13 7 -7 -5 4 -8 -2 -4 -14 10 -11 14 -25 35
-30 48 -13 31 -13 122 1 161 12 33 29 42 29 15z m-2820 -8 c0 -9 13 -16 33
-19 29 -4 30 -5 10 -12 -15 -5 -23 -15 -23 -31 0 -18 6 -24 23 -25 18 -1 17
-2 -7 -9 -16 -5 -32 -14 -36 -20 -4 -6 -19 -12 -35 -13 -25 -2 -30 2 -36 28
-3 17 -8 35 -9 40 -2 6 0 18 3 28 4 9 9 24 12 32 6 20 65 21 65 1z m-631 -126
c1 11 11 15 39 13 20 -1 103 -3 185 -3 81 -1 147 -4 148 -8 2 -20 7 -52 13
-99 7 -47 6 -53 -11 -54 -10 0 -31 -2 -48 -4 -16 -2 -106 -6 -198 -10 l-168
-8 6 84 c8 101 14 123 25 94 6 -13 9 -15 9 -5z m1804 -176 c-4 -10 -9 -12 -15
-6 -12 12 -1 35 12 27 5 -3 6 -13 3 -21z m-186 -140 c-3 -3 -12 -4 -19 -1 -8
3 -5 6 6 6 11 1 17 -2 13 -5z m-623 -32 c31 -15 53 -31 50 -35 -4 -4 -38 -7
-76 -7 -64 0 -68 1 -68 23 0 22 16 47 31 47 4 0 32 -13 63 -28z m1206 14 c0
-2 -8 -10 -17 -17 -16 -13 -17 -12 -4 4 13 16 21 21 21 13z m-30 -40 c0 -2 -8
-10 -17 -17 -16 -13 -17 -12 -4 4 13 16 21 21 21 13z m-1200 -305 c0 -21 -23
-71 -33 -72 -7 0 -43 -3 -80 -8 l-68 -7 3 35 c3 36 3 36 68 47 82 15 110 16
110 5z m-496 -90 c6 -49 7 -50 44 -53 l37 -3 3 -351 2 -352 -88 -16 c-242 -45
-313 -43 -487 11 -190 60 -313 150 -449 330 -26 36 -44 68 -40 72 5 4 64 20
131 34 148 31 374 118 489 187 45 28 89 50 98 50 38 0 150 55 194 96 26 24 50
43 53 44 4 0 9 -22 13 -49z m414 -23 c-6 -18 -108 -28 -108 -11 0 7 19 13 48
16 26 2 51 4 55 5 5 1 7 -4 5 -10z m-43 -67 c-10 -10 -175 -31 -236 -31 -64 0
-15 15 84 26 137 15 163 16 152 5z m-45 -60 c0 -12 -34 -18 -140 -26 -113 -9
-96 10 20 23 119 13 120 13 120 3z m-1525 -221 c-3 -5 -10 -10 -16 -10 -5 0
-9 5 -9 10 0 6 7 10 16 10 8 0 12 -4 9 -10z m1524 -206 c27 -19 51 -72 51
-111 0 -47 -22 -77 -60 -84 -19 -4 -49 -13 -67 -20 -24 -10 -37 -10 -57 -1
l-24 11 34 36 c19 20 34 44 34 53 0 9 -14 31 -32 49 l-32 33 33 6 c30 6 31 8
15 18 -17 9 -15 11 16 17 57 10 64 10 89 -7z m-123 -86 c2 -3 2 -12 -1 -20 -7
-18 -80 -60 -89 -51 -7 8 -8 77 -1 85 6 6 83 -6 91 -14z m-1174 -164 c33 -25
71 -50 84 -56 29 -14 31 -38 4 -69 -16 -19 -19 -21 -20 -7 0 14 -5 15 -32 7
-47 -13 -169 -11 -197 4 -39 20 -48 43 -31 74 15 26 103 93 122 93 5 0 37 -21
70 -46z m3725 -160 c-3 -3 -12 -4 -19 -1 -8 3 -5 6 6 6 11 1 17 -2 13 -5z"/>
<path d="M4685 5184 c-39 -23 -39 -24 -12 -24 29 0 77 26 77 41 0 15 -22 9
-65 -17z"/>
<path d="M5693 5009 c9 -5 17 -17 17 -24 0 -8 7 -15 15 -15 9 0 15 9 15 25 0
22 -4 25 -32 25 -27 -1 -30 -2 -15 -11z"/>
<path d="M4705 4950 c-27 -39 -46 -72 -43 -75 3 -3 29 28 57 70 29 41 48 75
43 75 -5 0 -30 -32 -57 -70z"/>
<path d="M4532 4695 c-28 -41 -48 -75 -43 -75 10 0 106 139 99 145 -2 3 -28
-29 -56 -70z"/>
<path d="M4366 4450 c-25 -38 -43 -70 -39 -70 11 0 98 129 91 135 -3 3 -26
-26 -52 -65z"/>
<path d="M4200 4216 c-16 -25 -26 -47 -21 -50 9 -6 71 70 71 86 0 20 -22 4
-50 -36z"/>
<path d="M4076 4035 c-9 -14 -23 -36 -32 -50 -14 -21 -14 -25 -1 -25 14 0 67
70 67 90 0 18 -17 11 -34 -15z"/>
<path d="M3891 3756 c-40 -59 -70 -111 -66 -114 3 -4 9 -2 13 4 87 124 133
197 129 207 -2 6 -36 -37 -76 -97z"/>
<path d="M1336 4138 c-17 -9 -14 -13 28 -39 49 -31 63 -34 85 -20 11 7 3 16
-34 40 -55 35 -53 34 -79 19z"/>
<path d="M1390 3992 c0 -5 12 -19 27 -33 l26 -24 -23 33 c-25 33 -30 38 -30
24z"/>
<path d="M1949 3953 c-24 -6 -62 -79 -54 -104 10 -32 64 -88 104 -109 42 -21
92 -27 139 -16 29 7 32 11 32 46 0 65 -68 129 -157 148 -28 6 -37 13 -35 25 3
17 0 18 -29 10z"/>
<path d="M1465 3890 c3 -5 8 -10 11 -10 2 0 4 5 4 10 0 6 -5 10 -11 10 -5 0
-7 -4 -4 -10z"/>
<path d="M1510 3815 c0 -5 5 -17 10 -25 5 -8 10 -10 10 -5 0 6 -5 17 -10 25
-5 8 -10 11 -10 5z"/>
<path d="M1530 3764 c0 -6 7 -19 16 -30 14 -18 14 -18 3 6 -14 31 -19 36 -19
24z"/>
<path d="M799 3679 c-21 -21 -23 -60 -2 -66 18 -6 63 42 63 67 0 27 -33 27
-61 -1z"/>
<path d="M590 3638 c-22 -36 -25 -48 -12 -48 5 0 18 18 31 40 27 48 9 54 -19
8z"/>
<path d="M1571 3665 c0 -5 8 -37 19 -70 10 -33 19 -51 19 -40 -1 21 -37 127
-38 110z"/>
<path d="M1693 3632 c-31 -5 -30 -32 2 -32 20 0 26 -7 35 -42 26 -100 38 -133
39 -108 1 31 -35 170 -46 179 -4 4 -18 5 -30 3z"/>
<path d="M1515 3600 c-13 -5 -14 -9 -5 -9 8 0 24 4 35 9 13 5 14 9 5 9 -8 0
-24 -4 -35 -9z"/>
<path d="M1395 3565 c-38 -14 -55 -22 -36 -18 41 6 142 42 121 41 -8 0 -46
-10 -85 -23z"/>
<path d="M734 3532 c3 -6 -7 -33 -24 -61 -37 -64 -62 -111 -57 -111 7 0 97
148 97 158 0 6 -5 14 -12 18 -6 4 -8 3 -4 -4z"/>
<path d="M1235 3511 c-39 -15 -79 -30 -89 -34 -10 -4 -17 -10 -14 -13 6 -5
188 65 188 72 0 7 -12 3 -85 -25z"/>
<path d="M680 3509 c-7 -11 -10 -23 -7 -25 2 -2 9 7 15 21 14 30 7 33 -8 4z"/>
<path d="M1614 3495 c4 -22 9 -48 12 -57 5 -18 -2 -20 -191 -54 -119 -21 -298
-64 -309 -74 -4 -5 38 3 95 17 112 26 402 83 407 78 6 -5 22 -122 22 -162 l0
-41 -97 -7 c-211 -14 -283 -23 -133 -17 80 4 165 7 190 7 l45 0 6 -70 c4 -38
4 -14 2 55 -4 117 -36 347 -49 359 -4 3 -4 -12 0 -34z"/>
<path d="M1090 3450 c0 -5 7 -7 15 -4 8 4 15 8 15 10 0 2 -7 4 -15 4 -8 0 -15
-4 -15 -10z"/>
<path d="M734 3413 c-15 -21 -39 -54 -52 -73 -20 -30 -18 -28 18 10 50 54 75
89 68 96 -3 2 -18 -12 -34 -33z"/>
<path d="M962 3358 c-33 -33 5 -92 42 -65 25 18 18 71 -9 75 -11 1 -26 -3 -33
-10z"/>
<path d="M720 3315 c-60 -61 -47 -65 15 -4 28 27 45 49 40 49 -6 0 -31 -20
-55 -45z"/>
<path d="M1188 3163 c12 -2 32 -2 45 0 12 2 2 4 -23 4 -25 0 -35 -2 -22 -4z"/>
<path d="M470 3050 c0 -5 20 -10 45 -10 25 0 45 5 45 10 0 6 -20 10 -45 10
-25 0 -45 -4 -45 -10z"/>
<path d="M1662 3010 c0 -14 2 -19 5 -12 2 6 2 18 0 25 -3 6 -5 1 -5 -13z"/>
<path d="M456 3002 c-2 -4 22 -9 55 -10 37 -2 59 1 59 7 0 13 -106 15 -114 3z"/>
<path d="M1408 2983 c12 -2 32 -2 45 0 12 2 2 4 -23 4 -25 0 -35 -2 -22 -4z"/>
<path d="M1582 2973 l67 -4 4 -57 3 -57 2 63 2 62 -72 -2 -73 -2 67 -3z"/>
<path d="M488 2953 c17 -2 47 -2 65 0 17 2 3 4 -33 4 -36 0 -50 -2 -32 -4z"/>
<path d="M484 2904 c3 -9 6 -22 6 -30 0 -8 6 -11 17 -7 11 4 14 3 9 -6 -22
-35 75 -58 109 -25 19 20 48 74 42 80 -2 3 -10 -9 -17 -26 -7 -16 -16 -30 -21
-30 -15 0 -45 36 -41 48 2 8 -14 12 -53 12 -48 0 -56 -3 -51 -16z m73 -10 c-3
-3 -12 -4 -19 -1 -8 3 -5 6 6 6 11 1 17 -2 13 -5z"/>
<path d="M861 2903 c0 -12 -4 -30 -7 -40 -5 -17 -5 -17 6 0 6 10 9 28 7 40 -4
22 -4 22 -6 0z"/>
<path d="M963 2873 c-18 -7 -16 -58 2 -73 9 -7 22 -9 32 -5 10 5 21 8 24 7 12
-2 -4 53 -19 66 -17 13 -20 13 -39 5z"/>
<path d="M1642 2820 c0 -19 2 -27 5 -17 2 9 2 25 0 35 -3 9 -5 1 -5 -18z"/>
<path d="M836 2805 c-3 -8 -1 -15 4 -15 6 0 10 7 10 15 0 8 -2 15 -4 15 -2 0
-6 -7 -10 -15z"/>
<path d="M1632 2745 c0 -16 2 -22 5 -12 2 9 2 23 0 30 -3 6 -5 -1 -5 -18z"/>
<path d="M1750 2680 c-12 -49 -31 -76 -48 -66 -9 5 -39 -71 -31 -78 2 -2 16
-6 31 -10 26 -6 27 -4 42 62 22 98 29 142 23 142 -3 0 -10 -22 -17 -50z"/>
<path d="M1621 2694 c0 -11 3 -14 6 -6 3 7 2 16 -1 19 -3 4 -6 -2 -5 -13z"/>
<path d="M1602 2609 c-7 -30 -28 -94 -47 -144 -19 -49 -32 -91 -30 -94 2 -2
10 9 16 25 7 16 18 43 25 59 20 46 56 184 52 197 -2 6 -10 -13 -16 -43z"/>
<path d="M570 2554 c0 -13 44 -84 52 -84 12 0 10 6 -12 50 -18 34 -40 53 -40
34z"/>
<path d="M780 2520 c0 -25 45 -73 63 -67 36 12 4 87 -38 87 -19 0 -25 -5 -25
-20z"/>
<path d="M2005 2425 c-104 -47 -153 -173 -74 -189 54 -11 88 -7 132 15 107 54
152 153 81 179 -36 14 -104 12 -139 -5z"/>
<path d="M1497 2325 c-9 -19 -15 -35 -12 -35 7 0 37 61 33 66 -3 2 -12 -12
-21 -31z"/>
<path d="M3107 4593 c-12 -12 -7 -33 8 -33 17 0 19 9 7 28 -5 7 -11 9 -15 5z"/>
<path d="M4620 3140 c0 -6 7 -13 15 -17 12 -4 15 -15 10 -47 -6 -47 8 -81 25
-56 12 19 10 101 -3 118 -11 15 -47 16 -47 2z"/>
<path d="M5080 3130 c0 -13 50 -33 59 -24 7 7 -28 34 -46 34 -7 0 -13 -5 -13
-10z"/>
<path d="M4740 3121 c0 -7 31 -11 82 -11 45 0 79 2 76 5 -11 11 -158 16 -158
6z"/>
<path d="M5238 3113 c57 -4 64 -6 73 -30 5 -15 8 -32 5 -39 -3 -7 2 -20 9 -31
13 -16 16 -16 25 -3 12 19 13 52 0 84 -9 25 -12 26 -92 24 -77 -2 -78 -2 -20
-5z m99 -75 c-2 -13 -4 -3 -4 22 0 25 2 35 4 23 2 -13 2 -33 0 -45z"/>
<path d="M5105 3070 c-8 -25 3 -62 16 -55 12 8 12 75 0 75 -5 0 -13 -9 -16
-20z"/>
<path d="M4432 3030 c0 -14 2 -19 5 -12 2 6 2 18 0 25 -3 6 -5 1 -5 -13z"/>
<path d="M4625 2986 c-15 -11 -17 -18 -9 -26 13 -13 67 7 61 24 -6 17 -31 18
-52 2z"/>
<path d="M5088 2993 c-22 -6 -24 -33 -2 -33 23 0 55 20 49 31 -6 9 -18 10 -47
2z"/>
<path d="M5156 2924 c-4 -10 -29 -15 -93 -16 l-88 -2 83 -3 c61 -3 84 -8 88
-18 4 -10 11 -12 22 -6 10 4 23 6 29 4 20 -7 79 16 98 37 18 20 17 20 -58 19
-55 -1 -77 -5 -81 -15z"/>
<path d="M5344 2899 c-10 -12 -32 -31 -49 -41 l-30 -20 44 5 c48 6 94 34 99
61 5 24 -41 21 -64 -5z"/>
<path d="M3870 3316 c0 -8 136 -94 160 -101 23 -7 24 -7 10 10 -35 43 -170
115 -170 91z"/>
<path d="M3924 3215 c-4 -9 -4 -19 0 -22 3 -4 6 -1 6 6 0 7 5 9 10 6 6 -3 10
-2 10 4 0 18 -20 23 -26 6z"/>
<path d="M4313 2191 c-84 -8 -153 -19 -153 -23 0 -11 35 -10 178 6 109 12 145
20 131 29 -2 1 -73 -4 -156 -12z"/>
<path d="M4363 2101 c-142 -17 -198 -38 -73 -27 132 12 240 29 240 38 0 10 -1
10 -167 -11z"/>
<path d="M4430 2018 c-79 -10 -146 -21 -149 -24 -12 -12 16 -11 149 6 80 11
148 19 153 20 4 0 7 5 7 10 0 6 -3 9 -7 9 -5 -1 -73 -10 -153 -21z"/>
<path d="M5697 1158 c-21 -11 -23 -32 -2 -24 8 3 15 1 15 -4 0 -6 -8 -10 -17
-10 -17 -1 -17 -1 0 -11 26 -15 47 -4 47 25 0 27 -19 38 -43 24z"/>
<path d="M5730 1085 c0 -8 7 -15 15 -15 8 0 15 7 15 15 0 8 -7 15 -15 15 -8 0
-15 -7 -15 -15z"/>
<path d="M4765 710 c-3 -6 1 -7 9 -4 18 7 21 14 7 14 -6 0 -13 -4 -16 -10z"/>
<path d="M5838 2933 c7 -3 16 -2 19 1 4 3 -2 6 -13 5 -11 0 -14 -3 -6 -6z"/>
<path d="M3100 1580 c0 -5 5 -10 10 -10 6 0 10 5 10 10 0 6 -4 10 -10 10 -5 0
-10 -4 -10 -10z"/>
</g>
</svg>
