<?xml version="1.0" standalone="no"?>
<!DOCTYPE svg PUBLIC "-//W3C//DTD SVG 20010904//EN"
 "http://www.w3.org/TR/2001/REC-SVG-20010904/DTD/svg10.dtd">
<svg version="1.0" xmlns="http://www.w3.org/2000/svg"
 width="626.000000pt" height="250.000000pt" viewBox="0 0 626.000000 250.000000"
 preserveAspectRatio="xMidYMid meet">

<g transform="translate(0.000000,250.000000) scale(0.100000,-0.100000)"
fill="#000000" stroke="none">
<path d="M3682 2333 c93 -190 145 -363 188 -623 15 -94 31 -150 43 -150 24 0
-32 333 -88 518 -36 118 -89 225 -121 247 -14 9 -24 13 -22 8z"/>
<path d="M3505 2179 c-42 -46 -70 -105 -108 -224 -37 -117 -39 -125 -28 -125
5 0 13 10 16 23 26 85 106 237 154 290 29 31 47 34 74 10 19 -18 20 -17 7 7
-36 72 -63 76 -115 19z"/>
<path d="M3692 1880 c0 -14 2 -19 5 -12 2 6 2 18 0 25 -3 6 -5 1 -5 -13z"/>
<path d="M4347 1861 c-4 -16 -1 -17 24 -7 35 13 38 26 5 26 -15 0 -26 -7 -29
-19z"/>
<path d="M3702 1820 c0 -14 2 -19 5 -12 2 6 2 18 0 25 -3 6 -5 1 -5 -13z"/>
<path d="M4290 1780 c0 -5 5 -10 10 -10 6 0 10 5 10 10 0 6 -4 10 -10 10 -5 0
-10 -4 -10 -10z"/>
<path d="M3711 1748 c-1 -26 -4 -28 -40 -28 -29 0 -41 -5 -45 -17 -4 -17 -10
-293 -7 -338 1 -17 3 -18 11 -5 7 11 10 5 11 -25 1 -22 1 -43 0 -47 0 -5 8 -8
18 -8 17 0 21 8 24 53 l3 52 2 -52 c2 -40 6 -53 20 -56 15 -4 15 -5 0 -6 -13
-1 -17 -19 -23 -108 -3 -60 -8 -112 -11 -118 -2 -5 -1 43 2 108 5 111 4 119
-13 115 -20 -4 -20 -4 -22 -80 -1 -39 -4 -49 -11 -38 -7 11 -8 5 -4 -20 4 -24
3 -31 -4 -21 -7 10 -11 3 -14 -25 -3 -21 0 -44 6 -52 6 -7 16 -18 21 -25 6 -7
32 -47 58 -89 27 -43 53 -81 59 -84 21 -13 -4 668 -32 881 -4 33 -8 48 -9 33z"/>
<path d="M4248 1733 c6 -2 18 -2 25 0 6 3 1 5 -13 5 -14 0 -19 -2 -12 -5z"/>
<path d="M4535 1585 c-14 -195 -12 -304 4 -314 13 -9 15 -69 5 -206 -1 -16 -2
-52 -3 -79 -1 -56 -11 -58 -13 -2 -3 82 -28 16 -28 -75 0 -27 -4 -49 -9 -49
-4 0 -8 8 -8 18 0 42 -4 47 -17 23 -16 -29 -10 -58 13 -64 11 -3 10 -5 -5 -6
-26 -1 -34 -25 -34 -98 l0 -53 -50 0 c-33 0 -50 -4 -50 -12 0 -10 -2 -10 -8
-1 -5 7 -19 9 -42 4 l-35 -7 -3 -239 c-2 -132 0 -259 3 -282 l6 -43 125 0
c104 0 124 2 124 15 0 27 80 1214 90 1335 l9 115 -33 70 -33 70 -8 -120z m22
-252 c-3 -10 -5 -4 -5 12 0 17 2 24 5 18 2 -7 2 -21 0 -30z m-80 -875 c-3 -8
-6 -5 -6 6 -1 11 2 17 5 13 3 -3 4 -12 1 -19z m8 -102 c6 -5 11 -28 12 -51 2
-37 -1 -44 -20 -49 -49 -13 -52 -10 -49 52 3 53 6 58 25 58 12 -1 27 -5 32
-10z"/>
<path d="M1789 1633 c-17 -15 -38 -41 -45 -59 -14 -33 -23 -311 -11 -331 4 -6
20 -9 37 -7 19 2 30 -1 30 -9 0 -6 6 -3 12 7 11 20 26 426 15 426 -3 0 -20
-12 -38 -27z"/>
<path d="M1570 1649 c0 -3 -9 -43 -20 -87 -35 -139 -49 -234 -75 -484 -6 -51
-9 -58 -28 -59 -12 0 -16 -3 -9 -6 6 -2 10 -9 7 -13 -3 -5 10 -12 30 -16 27
-5 33 -9 25 -19 -6 -8 -8 -32 -5 -58 4 -29 2 -47 -5 -52 -8 -5 -8 -11 1 -21 9
-12 6 -14 -23 -14 -26 0 -37 -6 -50 -27 -26 -42 -77 -93 -94 -93 -8 0 -14 -6
-12 -12 1 -7 -1 -41 -5 -75 -6 -49 -11 -62 -25 -62 -9 0 -35 -4 -57 -10 -74
-19 -85 -16 -85 27 0 43 -16 76 -24 52 -16 -47 -9 -413 9 -488 l6 -23 194 3
c106 2 196 6 199 9 3 3 9 183 12 400 3 217 7 404 10 416 2 11 23 45 46 75 l43
53 9 214 c8 186 7 220 -7 265 -14 43 -65 124 -67 105z m-209 -972 c-1 -12 -15
-9 -19 4 -3 6 1 10 8 8 6 -3 11 -8 11 -12z"/>
<path d="M4801 1188 c1 -78 5 -154 9 -168 8 -24 8 -24 9 -2 1 12 5 22 10 22 5
0 12 -10 16 -22 6 -20 8 -18 15 17 4 22 10 84 12 138 l5 98 -39 30 -38 31 1
-144z"/>
<path d="M5231 1300 l36 -19 -4 -73 c-6 -92 -8 -98 -33 -98 -19 0 -20 -7 -22
-147 -1 -82 -3 -166 -4 -188 -2 -22 -3 -55 -3 -72 -1 -26 -5 -33 -20 -33 -17
0 -20 -6 -18 -40 2 -22 -1 -40 -5 -40 -4 0 -8 -13 -8 -29 0 -21 -6 -30 -21
-34 -11 -3 -23 -15 -26 -26 -3 -12 -9 -21 -14 -21 -5 0 -9 -7 -9 -15 0 -10 10
-15 29 -15 22 0 28 -4 26 -17 -2 -10 -4 -51 -4 -90 l-1 -73 -55 0 -55 0 0 69
c0 78 -6 101 -25 101 -20 0 -23 -20 -31 -165 -7 -142 -14 -177 -14 -72 0 52
-3 67 -15 67 -10 0 -15 -17 -18 -68 l-3 -67 -2 67 c-2 54 -5 67 -19 71 -16 4
-16 5 1 6 17 1 18 7 13 72 -3 39 -9 74 -12 77 -15 15 -20 -23 -24 -164 l-3
-154 181 0 181 0 0 23 c0 18 21 349 66 1053 l7 101 -42 16 c-56 23 -75 21 -30
-3z"/>
<path d="M2419 1197 c-50 -33 -79 -82 -79 -132 0 -65 14 -72 165 -77 104 -4
140 -9 178 -26 26 -11 47 -19 47 -18 0 15 -40 93 -76 149 -46 70 -117 127
-160 127 -22 0 -22 -1 -9 -32 8 -18 19 -32 25 -30 6 1 29 -2 50 -8 34 -9 39
-14 45 -50 5 -30 2 -45 -12 -64 -10 -14 -24 -23 -30 -21 -7 2 -13 1 -13 -4 0
-13 -104 21 -121 39 -8 8 -15 24 -16 35 -3 33 18 98 35 111 32 23 5 24 -29 1z"/>
<path d="M893 1033 c-7 -15 -13 -42 -13 -60 0 -28 -4 -33 -22 -33 -13 0 -30
-5 -38 -10 -13 -8 -13 -10 2 -10 13 0 15 -8 13 -40 -2 -27 1 -43 11 -48 16 -9
36 -102 22 -102 -4 0 -2 -13 6 -29 9 -16 12 -31 9 -34 -3 -4 0 -13 6 -21 7 -9
9 -21 5 -28 -5 -7 -9 -18 -10 -24 -1 -6 -5 -21 -9 -33 -5 -16 -2 -21 12 -22
16 0 16 -1 -2 -8 -11 -5 -20 -12 -21 -17 -3 -37 -36 -58 -48 -31 -5 10 -7 10
-12 0 -3 -7 -15 -13 -27 -14 -20 -1 -20 -2 3 -9 19 -6 11 -8 -33 -9 -32 -1
-56 3 -53 8 8 13 -18 21 -35 11 -8 -6 -16 -4 -21 3 -4 7 -8 -72 -8 -175 l0
-188 160 0 160 0 0 413 c0 326 -3 423 -15 466 -18 68 -27 77 -42 44z m-116
-695 c-3 -8 -6 -5 -6 6 -1 11 2 17 5 13 3 -3 4 -12 1 -19z m-114 -5 c8 -33 7
-73 -2 -73 -5 0 -11 20 -13 45 -3 44 6 62 15 28z"/>
<path d="M760 1028 c-42 -9 -59 -21 -60 -41 0 -5 5 -5 10 -2 6 3 10 1 10 -5 0
-7 13 -9 38 -5 27 5 33 4 22 -4 -12 -9 -11 -11 8 -11 19 0 22 5 22 40 0 22 -1
40 -2 39 -2 -1 -23 -6 -48 -11z"/>
<path d="M1030 998 c0 -3 8 -25 17 -49 9 -24 20 -89 23 -144 l6 -100 2 90 c2
70 -3 102 -19 145 -19 52 -29 71 -29 58z"/>
<path d="M1667 889 c-22 -61 -29 -113 -21 -154 5 -28 11 -35 29 -35 17 0 24 7
29 31 11 56 7 164 -8 184 -12 17 -14 15 -29 -26z"/>
<path d="M2340 918 c-98 -8 -225 -40 -182 -46 17 -3 22 -10 22 -34 0 -26 3
-29 23 -25 12 4 52 9 90 13 60 6 68 9 73 30 6 22 11 24 66 24 63 0 98 -12 98
-34 0 -9 19 -16 53 -20 28 -4 69 -10 90 -13 35 -5 37 -4 37 20 0 14 7 30 16
35 21 12 -77 40 -166 47 -36 3 -78 7 -95 8 -16 2 -73 0 -125 -5z"/>
<path d="M3517 897 c3 -14 0 -28 -6 -31 -6 -4 -11 -17 -12 -29 0 -21 -1 -21
-9 -2 -12 32 -17 -8 -36 -292 l-7 -103 -43 0 c-28 0 -44 5 -45 13 -2 33 2 138
7 185 l6 52 -83 2 c-54 1 -67 3 -36 5 l47 4 0 52 c0 61 -7 73 -37 73 -23 0
-26 -8 -36 -91 -2 -16 -5 15 -7 70 l-3 100 -8 -70 c-4 -38 -11 -133 -14 -210
l-8 -140 39 -97 39 -98 165 1 165 0 73 114 c108 167 108 158 -23 341 -127 176
-134 186 -128 151z m60 -129 c-2 -13 -4 -3 -4 22 0 25 2 35 4 23 2 -13 2 -33
0 -45z"/>
<path d="M1733 865 c0 -22 2 -30 4 -17 2 12 2 30 0 40 -3 9 -5 -1 -4 -23z"/>
<path d="M3955 826 c3 -43 5 -222 5 -398 l0 -318 30 0 30 0 0 173 c0 250 -25
657 -37 605 -3 -10 -8 -18 -13 -18 -5 0 -11 8 -14 18 -3 9 -3 -19 -1 -62z"/>
<path d="M1810 881 c0 -5 -8 -8 -17 -7 -15 1 -19 -11 -25 -84 -16 -211 -7
-294 35 -329 16 -12 17 3 17 208 0 121 -2 221 -5 221 -3 0 -5 -4 -5 -9z"/>
<path d="M2335 640 c-17 -7 -13 -11 28 -29 61 -26 72 -26 144 1 47 17 54 23
38 29 -26 10 -185 10 -210 -1z"/>
<path d="M1644 454 c-7 -63 1 -134 20 -160 13 -17 15 -15 26 21 6 22 10 74 8
115 -3 69 -5 75 -25 76 -19 1 -23 -5 -29 -52z"/>
<path d="M2225 430 c-23 -6 -15 -8 38 -9 39 -1 67 3 67 9 0 11 -60 11 -105 0z"/>
<path d="M2488 431 c7 -4 14 -22 14 -38 1 -29 4 -31 56 -42 75 -15 114 -14
138 4 19 15 18 16 -8 39 -15 13 -50 29 -78 35 -61 13 -141 15 -122 2z"/>
<path d="M4920 310 c0 -20 5 -30 15 -30 10 0 15 10 15 30 0 20 -5 30 -15 30
-10 0 -15 -10 -15 -30z"/>
<path d="M2012 263 c-41 -4 -44 -6 -66 -58 -42 -94 -42 -95 -2 -95 30 0 35 4
41 28 3 16 18 38 33 49 23 17 36 19 72 13 83 -14 144 -48 133 -76 -4 -12 16
-14 117 -14 122 0 123 0 105 20 -77 85 -277 147 -433 133z"/>
<path d="M2755 169 c-22 -5 -53 -20 -70 -34 l-30 -24 170 0 c154 0 168 1 150
15 -33 25 -64 28 -85 9 -25 -22 -54 -16 -58 14 -4 23 -2 24 39 18 28 -4 38 -2
28 4 -17 11 -90 10 -144 -2z"/>
<path d="M3267 151 c-9 -16 -17 -32 -17 -35 0 -3 88 -6 195 -6 l195 0 -22 35
-23 35 -155 0 -156 0 -17 -29z"/>
</g>
</svg>
