<?xml version="1.0" encoding="iso-8859-1"?>
<!-- Generator: Adobe Illustrator 19.0.0, SVG Export Plug-In . SVG Version: 6.00 Build 0)  -->
<svg version="1.1" id="Layer_1" xmlns="http://www.w3.org/2000/svg" xmlns:xlink="http://www.w3.org/1999/xlink" x="0px" y="0px"
	 viewBox="0 0 512 512" style="enable-background:new 0 0 512 512;" xml:space="preserve">
<g transform="translate(1 1)">
	<g>
		<g>
			<path d="M178.2,118.467c5.12,0,8.533-3.413,8.533-8.533c0-23.893,18.773-42.667,42.667-42.667c5.12,0,8.533-3.413,8.533-8.533
				S234.52,50.2,229.4,50.2c-33.28,0-59.733,26.453-59.733,59.733C169.667,115.053,173.08,118.467,178.2,118.467z"/>
			<path d="M408.6,189.283V152.6C408.6,68.12,339.48-1,255-1S101.4,68.12,101.4,152.6v36.683C42.891,201.105-1,252.677-1,314.733
				c0,5.12,3.413,8.533,8.533,8.533h94.469c3.171,22.687,18.82,41.054,39.923,48.092L93.72,499.907
				c-0.853,2.56-0.853,5.12,0.853,7.68C96.28,509.293,98.84,511,101.4,511h307.2c2.56,0,5.12-1.707,6.827-3.413
				s1.707-5.12,0.853-7.68l-48.206-128.548c21.103-7.038,36.752-25.405,39.923-48.092h94.469c5.12,0,8.533-3.413,8.533-8.533
				C511,252.677,467.109,201.105,408.6,189.283z M118.467,152.6c0-75.093,61.44-136.533,136.533-136.533
				S391.533,77.507,391.533,152.6v34.422c-2.821-0.185-5.665-0.288-8.533-0.288H127c-2.869,0-5.712,0.104-8.533,0.288V152.6z
				 M351.427,374.467L395.8,493.933H113.347l45.227-119.467h2.56h187.733H351.427z M348.867,357.4H161.133
				c-20.48,0-37.547-14.507-41.813-34.133h271.36C386.413,342.893,369.347,357.4,348.867,357.4z M408.6,306.2H101.4H16.067
				C21.187,249.027,68.973,203.8,127,203.8h256c58.88,0,106.667,45.227,110.933,102.4H408.6z"/>
			<path d="M255,417.133c5.12,0,8.533-3.413,8.533-8.533s-3.413-8.533-8.533-8.533s-8.533,3.413-8.533,8.533
				S249.88,417.133,255,417.133z"/>
			<path d="M255,468.333c5.12,0,8.533-3.413,8.533-8.533v-17.067c0-5.12-3.413-8.533-8.533-8.533s-8.533,3.413-8.533,8.533V459.8
				C246.467,464.92,249.88,468.333,255,468.333z"/>
			<path d="M323.267,417.133c5.12,0,8.533-3.413,8.533-8.533s-3.413-8.533-8.533-8.533s-8.533,3.413-8.533,8.533
				S318.147,417.133,323.267,417.133z"/>
			<path d="M323.267,468.333c5.12,0,8.533-3.413,8.533-8.533v-17.067c0-5.12-3.413-8.533-8.533-8.533s-8.533,3.413-8.533,8.533
				V459.8C314.733,464.92,318.147,468.333,323.267,468.333z"/>
			<path d="M186.733,417.133c5.12,0,8.533-3.413,8.533-8.533s-3.413-8.533-8.533-8.533s-8.533,3.413-8.533,8.533
				S181.613,417.133,186.733,417.133z"/>
			<path d="M186.733,468.333c5.12,0,8.533-3.413,8.533-8.533v-17.067c0-5.12-3.413-8.533-8.533-8.533s-8.533,3.413-8.533,8.533
				V459.8C178.2,464.92,181.613,468.333,186.733,468.333z"/>
			<path d="M127,220.867c-18.773,0-34.133,15.36-34.133,34.133c0,18.773,15.36,34.133,34.133,34.133
				c18.773,0,34.133-15.36,34.133-34.133C161.133,236.227,145.773,220.867,127,220.867z M127,272.067
				c-9.387,0-17.067-7.68-17.067-17.067s7.68-17.067,17.067-17.067s17.067,7.68,17.067,17.067S136.387,272.067,127,272.067z"/>
			<path d="M246.467,220.867c-18.773,0-34.133,15.36-34.133,34.133c0,18.773,15.36,34.133,34.133,34.133S280.6,273.773,280.6,255
				C280.6,236.227,265.24,220.867,246.467,220.867z M246.467,272.067c-9.387,0-17.067-7.68-17.067-17.067s7.68-17.067,17.067-17.067
				s17.067,7.68,17.067,17.067S255.853,272.067,246.467,272.067z"/>
			<path d="M365.933,220.867c-18.773,0-34.133,15.36-34.133,34.133c0,18.773,15.36,34.133,34.133,34.133s34.133-15.36,34.133-34.133
				C400.067,236.227,384.707,220.867,365.933,220.867z M365.933,272.067c-9.387,0-17.067-7.68-17.067-17.067
				s7.68-17.067,17.067-17.067S383,245.613,383,255S375.32,272.067,365.933,272.067z"/>
		</g>
	</g>
</g>
<g>
</g>
<g>
</g>
<g>
</g>
<g>
</g>
<g>
</g>
<g>
</g>
<g>
</g>
<g>
</g>
<g>
</g>
<g>
</g>
<g>
</g>
<g>
</g>
<g>
</g>
<g>
</g>
<g>
</g>
</svg>
