<?xml version="1.0" encoding="utf-8"?>
<!-- Generator: Adobe Illustrator 16.0.0, SVG Export Plug-In . SVG Version: 6.00 Build 0)  -->
<!DOCTYPE svg PUBLIC "-//W3C//DTD SVG 1.1//EN" "http://www.w3.org/Graphics/SVG/1.1/DTD/svg11.dtd" [
	<!ENTITY ns_flows "http://ns.adobe.com/Flows/1.0/">
	<!ENTITY ns_extend "http://ns.adobe.com/Extensibility/1.0/">
	<!ENTITY ns_ai "http://ns.adobe.com/AdobeIllustrator/10.0/">
	<!ENTITY ns_graphs "http://ns.adobe.com/Graphs/1.0/">
]>
<svg version="1.1" id="Layer_1" xmlns:x="&ns_extend;" xmlns:i="&ns_ai;" xmlns:graph="&ns_graphs;"
	 xmlns="http://www.w3.org/2000/svg" xmlns:xlink="http://www.w3.org/1999/xlink" xmlns:a="http://ns.adobe.com/AdobeSVGViewerExtensions/3.0/"
	 x="0px" y="0px" width="16382.84px" height="16382.84px" viewBox="0 0 16382.84 16382.84"
	 enable-background="new 0 0 16382.84 16382.84" xml:space="preserve">
<polygon fill="#FFFFFF" stroke="#231F20" stroke-width="20" stroke-miterlimit="10" points="12630.215,6804.718 7274.758,7665.165 
	5593.34,9291.008 8126.109,9292.772 "/>
<polygon fill="#FFFFFF" stroke="#231F20" stroke-width="20" stroke-miterlimit="10" points="8129.068,5047.356 5596.299,5045.592 
	7275.449,6673.776 12629.701,7541.688 "/>
<path fill="#FFDA44" d="M4957.913,7180.603c-0.18,257.812-768.212,466.271-1715.453,465.611
	c-947.237-0.66-1714.981-210.19-1714.801-468.002c0.18-257.81,768.215-466.254,1715.452-465.594
	C4190.352,6713.278,4958.093,6922.793,4957.913,7180.603z"/>
<path fill="#FF9811" d="M4100.161,7471.76c-520.93-0.363-1048.531-70.485-1568.142-208.415
	c-107.126-28.431-203.833-57.195-289.206-84.634c85.382-27.32,182.158-55.95,289.323-84.233
	c519.776-137.203,1047.502-206.591,1568.431-206.228L4100.161,7471.76 M5386.703,7180.901l-1285.892-642.745
	c-2143.943-1.494-3430.729,639.458-3430.729,639.458s1285.891,642.763,3429.834,644.257L5386.703,7180.901z"/>
<path fill="#FF5023" d="M5386.703,7180.901l-1286.339-0.896l-0.203,291.755c-520.93-0.363-1048.531-70.485-1568.142-208.415
	c-107.126-28.431-203.833-57.195-289.206-84.634l-1572.73-1.097c0,0,1285.891,642.763,3429.834,644.257L5386.703,7180.901z"/>
<path fill="#767769" stroke="#000000" stroke-miterlimit="10" d="M3924.691,8182.353l7718.083,5.379
	c2143.941,1.494,3430.986-1012.826,3430.986-1012.826S13788.131,6158.794,11644.188,6157.3l-7718.111-5.38l-1.415,2030.433H3924.691
	z"/>
<path fill="#767769" stroke="#000000" stroke-miterlimit="10" d="M3924.691,8182.353l7718.083,5.379
	c2143.941,1.494,3430.986-1012.826,3430.986-1012.826l-11148.361-7.77L3924.691,8182.353z"/>
<rect x="3553.357" y="6524.408" transform="matrix(6.969729e-004 -1 1 6.969729e-004 -2602.1929 11731.1494)" fill="#FFFFFF" stroke="#231F20" stroke-miterlimit="10" width="2030.421" height="1286.34"/>
<rect x="4060.606" y="7032.022" transform="matrix(6.969729e-004 -1 1 6.969729e-004 -3110.1602 12238.0566)" fill="#FFFFFF" stroke="#231F20" stroke-miterlimit="10" width="1015.217" height="1286.34"/>
</svg>
