<?xml version="1.0" standalone="no"?>
<!DOCTYPE svg PUBLIC "-//W3C//DTD SVG 20010904//EN"
 "http://www.w3.org/TR/2001/REC-SVG-20010904/DTD/svg10.dtd">
<svg version="1.0" xmlns="http://www.w3.org/2000/svg"
 width="900.000000pt" height="460.000000pt" viewBox="0 0 900.000000 460.000000"
 preserveAspectRatio="xMidYMid meet">

<g transform="translate(0.000000,460.000000) scale(0.100000,-0.100000)"
fill="#000000" stroke="none">
<path d="M7517 3683 c-11 -10 -8 -71 3 -78 6 -4 10 12 10 39 0 47 -2 51 -13
39z"/>
<path d="M7800 3630 c0 -33 4 -60 10 -60 6 0 10 27 10 60 0 33 -4 60 -10 60
-6 0 -10 -27 -10 -60z"/>
<path d="M8220 3619 c0 -37 4 -58 10 -54 6 3 10 31 10 61 0 30 -4 54 -10 54
-6 0 -10 -27 -10 -61z"/>
<path d="M7100 3380 c0 -24 3 -26 35 -22 29 3 35 8 35 27 0 21 -5 23 -35 22
-30 -2 -35 -5 -35 -27z"/>
<path d="M6542 3370 c0 -14 2 -19 5 -12 2 6 2 18 0 25 -3 6 -5 1 -5 -13z"/>
<path d="M6600 3370 c0 -18 7 -20 75 -20 42 0 76 -4 77 -10 0 -5 1 -15 2 -21
1 -7 -26 -11 -76 -11 -70 0 -78 -2 -78 -19 0 -18 9 -19 145 -19 124 0 147 2
152 16 3 9 0 20 -8 24 -11 7 -11 13 0 33 7 14 10 30 7 36 -5 7 -58 11 -152 11
-137 0 -144 -1 -144 -20z m177 -52 c-3 -7 -5 -2 -5 12 0 14 2 19 5 13 2 -7 2
-19 0 -25z m30 0 c-3 -7 -5 -2 -5 12 0 14 2 19 5 13 2 -7 2 -19 0 -25z m30 0
c-3 -8 -6 -5 -6 6 -1 11 2 17 5 13 3 -3 4 -12 1 -19z m20 0 c-3 -8 -6 -5 -6 6
-1 11 2 17 5 13 3 -3 4 -12 1 -19z"/>
<path d="M6385 3351 c-3 -12 -3 -30 0 -42 12 -37 105 -16 105 24 0 21 -20 33
-62 36 -29 2 -37 -2 -43 -18z"/>
<path d="M6542 3290 c0 -14 2 -19 5 -12 2 6 2 18 0 25 -3 6 -5 1 -5 -13z"/>
<path d="M6561 3284 c0 -11 3 -14 6 -6 3 7 2 16 -1 19 -3 4 -6 -2 -5 -13z"/>
<path d="M8814 2779 c-10 -17 13 -36 27 -22 12 12 4 33 -11 33 -5 0 -12 -5
-16 -11z"/>
<path d="M8864 2779 c-10 -17 13 -36 27 -22 12 12 4 33 -11 33 -5 0 -12 -5
-16 -11z"/>
<path d="M8751 2580 l-214 -5 2 -105 c2 -68 6 -107 14 -112 7 -4 46 -19 87
-33 68 -22 85 -24 180 -19 110 7 155 22 166 57 3 10 -1 26 -10 36 -14 15 -14
18 4 31 25 18 25 45 1 72 -17 18 -18 22 -5 35 42 42 9 48 -225 43z m120 -135
c5 4 9 2 9 -4 0 -5 -5 -11 -12 -13 -8 -3 -7 -6 3 -10 18 -7 22 20 6 40 -7 9
-4 12 12 12 12 0 19 -4 16 -10 -3 -5 -1 -10 4 -10 6 0 11 5 11 10 0 6 7 10 15
10 8 0 15 -7 15 -16 0 -9 -5 -12 -12 -8 -10 6 -10 5 -1 -7 10 -13 7 -17 -21
-27 -46 -17 -66 -7 -65 32 1 17 3 23 6 13 2 -9 9 -15 14 -12z"/>
<path d="M8340 2558 c-529 -116 -578 -130 -635 -180 -53 -46 -56 -59 -15 -54
17 2 30 -1 30 -5 0 -5 -19 -9 -42 -9 -41 -1 -46 -4 -92 -63 -72 -91 -106 -169
-106 -242 0 -85 14 -126 61 -179 48 -55 166 -115 274 -140 95 -23 278 -55 285
-51 3 2 55 9 116 15 163 16 244 30 245 43 2 18 2 21 -6 45 -5 17 -2 22 11 22
13 0 14 3 5 14 -17 20 0 27 24 10 10 -8 13 -14 7 -14 -7 0 -12 -5 -12 -11 0
-6 7 -8 16 -5 9 3 34 1 57 -5 55 -15 138 11 184 57 36 36 41 52 19 60 -8 3
-17 12 -20 19 -5 15 15 65 27 65 14 0 7 39 -13 76 l-21 36 21 18 c11 9 20 23
20 29 0 36 -126 100 -210 107 -31 2 -37 1 -20 -4 17 -6 21 -10 12 -16 -6 -4
-17 -4 -24 0 -7 5 -8 3 -3 -6 6 -9 2 -10 -15 -5 -12 4 -20 3 -17 -2 3 -5 -8
-16 -24 -25 -29 -17 -29 -17 -23 6 4 17 0 27 -13 36 -16 9 -15 10 7 4 20 -5
23 -4 13 7 -22 22 -14 30 23 23 30 -5 35 -4 32 11 -3 18 55 45 83 38 8 -3 6 1
-4 7 -13 8 -15 15 -8 24 8 9 1 15 -24 25 -19 7 -36 18 -37 24 -1 14 -6 115 -7
170 l-1 37 -67 -1 c-38 -1 -88 -6 -113 -11z m-390 -713 c0 -12 -14 -15 -69
-15 -65 0 -90 8 -74 24 3 3 37 6 75 6 54 0 68 -3 68 -15z m505 -34 c3 -5 2
-12 -3 -15 -5 -3 -9 1 -9 9 0 17 3 19 12 6z m-10 -89 c-3 -3 -11 0 -18 7 -9
10 -8 11 6 5 10 -3 15 -9 12 -12z"/>
<path d="M4889 2489 c15 -6 21 -15 17 -24 -3 -8 -1 -15 4 -15 6 0 10 10 10 23
0 18 -6 23 -27 24 -27 2 -28 2 -4 -8z"/>
<path d="M4896 2383 c-6 -14 -5 -15 5 -6 7 7 10 15 7 18 -3 3 -9 -2 -12 -12z"/>
<path d="M4871 2339 c-17 -18 -18 -25 -8 -38 10 -12 9 -14 -5 -8 -11 4 -17 2
-15 -6 1 -7 -4 -11 -10 -9 -7 1 -13 -3 -13 -9 0 -5 -6 -7 -12 -3 -10 5 -10 4
-1 -6 9 -9 17 -7 41 10 17 13 28 29 25 36 -7 18 23 49 30 31 4 -9 6 -9 6 0 2
23 -18 23 -38 2z"/>
<path d="M8600 2310 c-9 -6 -10 -10 -3 -10 6 0 15 5 18 10 8 12 4 12 -15 0z"/>
<path d="M8625 2300 c-4 -6 7 -10 27 -9 27 0 30 2 13 9 -27 12 -33 12 -40 0z"/>
<path d="M3780 2270 c-8 -5 -12 -12 -9 -15 4 -3 12 1 19 10 14 17 11 19 -10 5z"/>
<path d="M3738 2231 c5 -14 3 -14 -11 -2 -10 7 -17 9 -17 3 0 -6 6 -13 13 -15
8 -4 7 -6 -3 -6 -9 -1 -20 3 -26 9 -5 5 -15 6 -24 0 -11 -7 -8 -10 13 -15 33
-9 53 -2 66 23 7 14 7 19 -4 19 -8 0 -11 -7 -7 -16z"/>
<path d="M8476 2194 c-4 -9 -4 -19 -1 -22 2 -3 7 3 11 12 4 9 4 19 1 22 -2 3
-7 -3 -11 -12z"/>
<path d="M390 1970 c0 -5 6 -10 14 -10 8 0 18 5 21 10 3 6 -3 10 -14 10 -12 0
-21 -4 -21 -10z"/>
<path d="M290 1960 c0 -5 9 -10 20 -10 11 0 20 5 20 10 0 6 -9 10 -20 10 -11
0 -20 -4 -20 -10z"/>
<path d="M5650 1898 c0 -27 12 -44 73 -103 80 -77 120 -111 101 -85 -63 87
-166 220 -169 220 -3 0 -5 -14 -5 -32z"/>
<path d="M284 1875 c-7 -18 3 -35 21 -35 21 0 28 19 15 35 -16 19 -29 19 -36
0z"/>
<path d="M392 1877 c-15 -17 1 -42 23 -33 18 6 17 37 -1 43 -6 2 -16 -2 -22
-10z"/>
<path d="M7082 1838 c3 -7 13 -15 22 -16 12 -3 17 1 14 10 -3 7 -13 15 -22 16
-12 3 -17 -1 -14 -10z"/>
<path d="M7020 1796 c0 -10 9 -16 21 -16 24 0 21 23 -4 28 -10 2 -17 -3 -17
-12z"/>
<path d="M7192 1778 c3 -7 13 -15 22 -16 12 -3 17 1 14 10 -3 7 -13 15 -22 16
-12 3 -17 -1 -14 -10z"/>
<path d="M7127 1753 c-11 -11 -8 -20 9 -27 23 -9 37 3 23 20 -13 15 -22 18
-32 7z"/>
<path d="M8474 1738 c-9 -14 12 -16 41 -4 l30 13 -33 -1 c-19 -1 -36 -4 -38
-8z"/>
<path d="M500 1616 c0 -13 11 -16 55 -16 30 0 55 5 55 10 0 6 -8 10 -17 10
-10 0 -35 3 -55 6 -31 5 -38 4 -38 -10z"/>
<path d="M700 1606 c0 -13 11 -16 54 -16 30 0 58 5 61 10 4 6 -9 10 -32 10
-21 0 -48 3 -60 6 -17 5 -23 2 -23 -10z"/>
<path d="M5935 1580 c10 -11 20 -20 23 -20 3 0 -3 9 -13 20 -10 11 -20 20 -23
20 -3 0 3 -9 13 -20z"/>
<path d="M6188 1420 c-1 -33 0 -60 5 -60 4 0 7 27 7 60 0 77 -7 77 -12 0z"/>
<path d="M7182 1385 c0 -16 2 -22 5 -12 2 9 2 23 0 30 -3 6 -5 -1 -5 -18z"/>
<path d="M3371 1369 c-1 -26 -3 -27 -83 -33 -139 -11 -168 -17 -168 -33 0 -10
6 -13 18 -8 46 17 230 33 243 20 8 -7 13 -6 16 3 7 18 21 15 26 -5 4 -17 5
-17 6 0 1 15 12 17 89 15 81 -1 83 -2 32 -8 -40 -5 -24 -7 60 -6 63 1 143 -3
178 -7 38 -6 62 -5 62 0 0 5 -6 10 -12 10 -7 0 -40 5 -72 12 -33 6 -133 11
-222 11 l-163 0 -4 28 -4 27 -2 -26z"/>
<path d="M4054 1372 c18 -21 18 -23 1 -42 -18 -19 -17 -20 6 -20 17 0 20 3 10
9 -7 5 -9 11 -4 14 5 3 17 -3 26 -14 19 -22 42 -26 30 -6 -4 8 -26 29 -48 48
-22 18 -31 24 -21 11z"/>
<path d="M5031 1385 c0 -11 23 -45 31 -45 3 0 5 7 5 15 0 8 -6 15 -13 15 -7 0
-15 6 -17 13 -3 6 -6 8 -6 2z"/>
<path d="M5163 1285 c0 -38 2 -53 4 -32 2 20 2 52 0 70 -2 17 -4 1 -4 -38z"/>
<path d="M5180 1277 l0 -63 65 4 c36 2 90 1 121 -3 44 -5 53 -9 44 -20 -9 -11
-4 -11 27 -4 21 5 41 9 46 9 4 0 7 18 7 40 0 34 -4 42 -29 55 -16 8 -55 18
-85 21 -31 4 -59 11 -62 15 -3 5 -34 9 -70 9 l-64 0 0 -63z"/>
<path d="M4145 1320 c-3 -5 -1 -10 4 -10 6 0 11 5 11 10 0 6 -2 10 -4 10 -3 0
-8 -4 -11 -10z"/>
<path d="M4678 1323 c23 -2 61 -2 85 0 23 2 4 4 -43 4 -47 0 -66 -2 -42 -4z"/>
<path d="M4888 1323 c6 -2 18 -2 25 0 6 3 1 5 -13 5 -14 0 -19 -2 -12 -5z"/>
<path d="M5123 1275 c0 -33 2 -45 4 -27 2 18 2 45 0 60 -2 15 -4 0 -4 -33z"/>
<path d="M5143 1275 c0 -33 2 -45 4 -27 2 18 2 45 0 60 -2 15 -4 0 -4 -33z"/>
<path d="M2778 1313 c7 -3 16 -2 19 1 4 3 -2 6 -13 5 -11 0 -14 -3 -6 -6z"/>
<path d="M3015 1310 c3 -5 8 -10 11 -10 2 0 4 5 4 10 0 6 -5 10 -11 10 -5 0
-7 -4 -4 -10z"/>
<path d="M3458 1313 c7 -3 16 -2 19 1 4 3 -2 6 -13 5 -11 0 -14 -3 -6 -6z"/>
<path d="M4288 1313 c6 -2 18 -2 25 0 6 3 1 5 -13 5 -14 0 -19 -2 -12 -5z"/>
<path d="M4968 1295 c-6 -14 -19 -25 -30 -25 -10 0 -18 -4 -18 -10 0 -5 9 -10
20 -10 11 0 29 -5 39 -12 29 -18 85 1 89 30 5 32 -11 47 -53 50 -29 2 -37 -2
-47 -23z"/>
<path d="M2928 1293 c6 -2 18 -2 25 0 6 3 1 5 -13 5 -14 0 -19 -2 -12 -5z"/>
<path d="M3623 1293 c15 -2 39 -2 55 0 15 2 2 4 -28 4 -30 0 -43 -2 -27 -4z"/>
<path d="M6194 1170 c0 -58 1 -81 3 -52 2 28 2 76 0 105 -2 28 -3 5 -3 -53z"/>
</g>
</svg>
